<?xml version="1.0" encoding="UTF-8"?>
<svg id="Layer_1" xmlns="http://www.w3.org/2000/svg" version="1.1" viewBox="0 0 1536 1024">
  <!-- Generator: Adobe Illustrator 30.4.0, SVG Export Plug-In . SVG Version: 2.1.4 Build 226)  -->
  <defs>
    <style>
      .st0 {
        fill: #142d58;
      }

      .st1 {
        fill: #f3f4f6;
      }

      .st2 {
        fill: #119f99;
      }

      .st3 {
        fill: #18315d;
      }

      .st4 {
        fill: #039993;
      }
    </style>
  </defs>
  <g>
    <path class="st2" d="M472.56,542.53c-1.12,9.31-9.6,14.77-17.71,13.84-8.68-1-14.92-8.23-14.54-17.31.32-7.61,5.18-14.4,12.7-15.53,5.77-.87,10.94.47,14.79,4.11s5.53,8.48,4.76,14.89ZM467.54,542.98c1.63-7.56-2.86-15.46-10.57-15.73-8.15-.28-12.65,7.58-11.4,14.96,1.02,5.99,4.94,10.41,10.93,10.46,4.99.04,9.75-3.73,11.03-9.68Z"/>
    <path class="st2" d="M708.69,538.78c2.5,2.67,4.93,5.9,4.56,9.24-.28,2.5-3.67,7.16-6.6,7.28l-15.57.66-.04-32.35,13.27.33c2.89.07,6.57,2.81,7.17,5.11.77,2.92-.26,7.1-2.79,9.72ZM703.95,536.99c1.78-.13,3.51-3.85,3.26-5.41-.22-1.37-2.39-3.89-3.81-3.95l-7.93-.32.3,10.26,8.19-.58ZM704.76,551.69c1.72-.13,3.7-3.62,3.6-5.18s-2.19-4.79-3.8-4.92l-8.88-.75v11.54s9.08-.69,9.08-.69Z"/>
    <polygon class="st2" points="883.45 541.41 871.24 541.33 871.33 552.12 885.43 552.16 885.31 555.86 866.47 555.96 866.34 523.77 884.94 523.72 885.05 527.53 870.84 527.48 870.91 537.3 883.44 537.49 883.45 541.41"/>
    <path class="st2" d="M506.44,556.01c-5.24.18-10,.35-12.85-3.31-2.88-3.69-2.91-9.08-.94-12.67,4.66-8.51,16.36-1.91,16.23-6.91l-.31-11.41,4.42-.06.3,34.13-6.85.23ZM509.31,545.69c0-3.81-3.09-6.9-6.9-6.9s-6.9,3.09-6.9,6.9,3.09,6.9,6.9,6.9,6.9-3.09,6.9-6.9Z"/>
    <path class="st2" d="M660.67,535.68l4.39-.04-6.82,19.9-4.17-.26-4.48-11.83-4.2,12.13-4.12.07-7.28-20.04,4.74.2,4.75,12.97,4.75-12.75,2.95-.57c.69-.13.94,2.03,1.22,2.75l4.03,10.3,4.25-12.83Z"/>
    <polygon class="st2" points="595.47 537.72 595.49 541.57 583.36 541.58 583.33 555.92 578.64 555.93 578.66 523.69 597.32 523.78 597.45 527.49 583.3 527.62 583.38 537.43 595.47 537.72"/>
    <path class="st2" d="M757.29,556.16c-2.03.06-5.27-1.42-6.29-2.84s-1.28-5.87.17-7.1c3.56-3,7.94-2.94,13.22-2.8-.43-1.75-1.26-4-2.29-4.37-1.24-.44-4.38-.34-5.66-.02l-2.71.67c-.63.16-.96-1.12-1.44-3.03l8.81-1.5c3.11-.53,7.24,2.8,7.26,5.92l.08,14.7-11.15.36ZM764.52,547.09l-7.97-.33-2,3.77c-.49.92,2.52,2.3,3.62,2.33,2.9.07,6.62-.85,6.35-5.76Z"/>
    <path class="st2" d="M735.32,556.05c-7.28-2.02-11.7,2.45-16.86-1.96-1.23-1.05-2.32-4.63-1.57-6.06,2.62-4.93,8.29-4.49,13.61-4.68.55-1.35-.88-4.5-2.04-4.49l-5.22.05c-.52,0-2.21.74-2.68.98-.62.31-1.68-2.49-1.11-2.87,1.76-1.11,5.8-1.82,8.51-1.8,3.55.02,7.17,2.57,7.21,6.2l.15,14.63ZM730.65,547.59c-3.37-1.86-9.25-1.31-9.35,2.63-.05,2.2,3.9,3.29,5.95,2.59s4.38-3.63,3.4-5.22Z"/>
    <path class="st2" d="M961.32,555.91c-7.59-1.81-14.67,3.36-17.65-3.13-1.16-2.52-.63-6.62,2.22-7.89,3.47-1.54,6.89-1.35,11.41-1.54-.53-1.89-1.78-4.44-3.06-4.55-1.42-.13-4.29.12-5.58.38l-2.63.52c-.51.1-.95-2.49-.5-2.74,1.6-.88,4.98-1.61,7.39-1.79,4.59-.34,8.38,2.53,8.38,7.09l.02,13.65ZM956.79,547.53c-3.57-1.7-9.22-.95-9.39,2.56-.11,2.44,3.87,3.38,5.92,2.79s4.65-3.85,3.47-5.35Z"/>
    <path class="st2" d="M823.65,547.02c-.78,1.64,1.3,4.85,3.02,5.36,5.01,1.5,10-3.7,10.82.45.52,2.62-11.5,6.86-17.12-.74-3.42-4.63-2.9-11.81,2.39-15.26,3.14-2.05,7.76-2.39,11.2-.47,2.99,1.67,4.83,5.81,4.43,10.22l-14.75.44ZM833.91,543.97c-.38-4.69-3.27-6.03-6.23-5.57-2.44.37-4.48,2.57-4.8,5.31l11.03.27Z"/>
    <path class="st2" d="M522.6,547.07c.51,1.97,1.85,4.48,3.26,5.09,1.67.72,5.15.39,6.6-.15l2.77-1.04c.68-.25,1.77,1.75,1.4,2.37s-1.36,1.28-2.34,1.75c-6.22,2.98-12.92.74-15.69-5.18s.35-13.34,7.49-14.68c2.81-.53,6.85.46,8.84,2.25,2.13,1.91,2.73,5.74,2.6,9.24l-14.94.34ZM533.68,543.64c-2.05-4.73-3.91-5.31-6.1-5.21-2.5.11-4.28,1.69-5.33,5.27l11.43-.06Z"/>
    <path class="st2" d="M1002.03,556.24c-5.92-.67-9.7-5.01-10.04-9.73-.39-5.41,2.49-9.97,8.06-11.17,7.07-1.52,12.82,2.3,13.73,9.18.84,6.32-4.11,12.59-11.75,11.73ZM1009.86,545.68c0-3.77-3.05-6.82-6.82-6.82s-6.82,3.05-6.82,6.82,3.05,6.82,6.82,6.82,6.82-3.05,6.82-6.82Z"/>
    <path class="st2" d="M904.32,546.82c.28,2.28,1.83,4.85,3.83,5.7,3.87,1.63,8.61-2.95,9.56-.95l.82,1.73c.29.61-1.57,1.34-2.31,1.7-6.24,3.1-13.06,1.04-15.74-4.91s-.2-12.93,6.79-14.59c3.14-.75,7.23-.12,9.49,2.09s3.03,6.13,2.8,9.27l-15.25-.03ZM915.28,543.93c-.69-4.61-3.49-5.97-6.56-5.56-2.24.3-4.18,2.52-4.61,5.43l11.16.13Z"/>
    <path class="st2" d="M617.69,555.7c-5.52-1.96-7.85-7.05-7.09-11.87.78-5,4.85-8.68,10.43-8.81,6.9-.16,12.24,5.44,11.4,12.21-.77,6.19-7.69,10.97-14.74,8.47ZM622.35,552.66c3.94-.64,5.78-4.8,5.38-7.88-.43-3.32-2.85-6.64-6.64-6.39-4.38.28-6.6,4.31-6.1,8.01.43,3.15,2.79,7,7.36,6.27Z"/>
    <path class="st2" d="M788.72,555.65l-.67-14.65c-.06-1.43-3.99-2.52-5.24-1.95-1.42.65-4.08,3.1-4.1,4.68l-.17,12.07-4.19.05-.02-20.33,5.62.86c3.16-1.26,10.66-2.83,12.15,2.31,1.47,5.06.71,11.45.72,17l-4.12-.06Z"/>
    <path class="st2" d="M1033.27,555.84l-.82-15.3c-.09-1.63-5.05-2.18-6.36-1.23s-3.17,3.64-3.15,5.36l.11,11.27-4.44-.07.05-20.51,5.51,1.25c3.07-1.63,11.39-2.81,12.52,2.55l.7,16.81-4.12-.11Z"/>
    <path class="st2" d="M802.29,544.46c-.52,3.01,1.03,6.28,2.64,7.39,4.24,2.95,9.44-2.88,10.36.38,1.27,4.52-10.46,5.88-14.47,1.42-3.53-3.92-4.37-9.28-1.94-13.45,4.83-8.29,17.19-4,16.63-2.57l-.98,2.47c-.67,1.7-4.4-2.3-8.6-.93-1.36.44-3.27,3.09-3.65,5.3Z"/>
    <path class="st2" d="M973.21,550.76c.02,1.2,3.75,2.06,5.06,1.88,0-.05-.04,2.05-.05,2.77-2.65,2.04-9.12,1.27-9.3-2.78l-.61-13.18-3.33-1.11c-.59-.2-.02-2.38.56-2.58,1.11-.38,3.27-1.21,3.24-2.13l-.16-4.9,4.4.1c-.12,2.22.02,6.11,1.48,6.41l3.94.82c.73.15.38,2.66-.33,2.74l-5.09.55.18,11.39Z"/>
    <polygon class="st2" points="937.68 535.6 941.75 535.74 933.48 555.52 929.42 555.67 921.35 535.65 926.03 535.65 931.54 548.9 937.68 535.6"/>
    <rect class="st2" x="726.26" y="536.51" width="34.32" height="4.52" transform="translate(201.7324 1280.0627) rotate(-89.7744)"/>
    <rect class="st2" x="890.39" y="521.46" width="4.58" height="34.53" transform="translate(-1.06 1.76)"/>
    <rect class="st2" x="601.49" y="522.06" width="4.47" height="33.9" transform="translate(-1.77 1.99)"/>
    <path class="st2" d="M546.97,543.97l-.28,11.72-4.23-.03.03-20.02,11.04-.36-.16,3.71-4.63,1.06c-.98.22-1.73,2.87-1.76,3.92Z"/>
    <path class="st2" d="M482.49,542.9l-.17,12.96-4.24-.25-.17-19.92,11.44-.15-.29,3.35c-2.56-.08-6.54,1.76-6.57,4.01Z"/>
    <rect class="st2" x="983.09" y="535.49" width="4.39" height="20.48" transform="translate(-2.85 5.18) rotate(-.3)"/>
    <path class="st2" d="M1043.34,556.02c-.98-.36-1.5-4.19-.69-4.9s3.05-.66,4.28-.43c1.06.19.89,3.23.75,4.47-.12,1.07-2.88,1.39-4.35.86Z"/>
    <circle class="st2" cx="985.24" cy="528.2" r="2.71"/>
    <rect class="st2" x="842.37" y="550.99" width="5.09" height="5.02" transform="translate(-12.83 20.11) rotate(-1.35)"/>
    <rect class="st2" x="554.53" y="550.85" width="4.94" height="5.16" transform="translate(-15.61 16.17) rotate(-1.64)"/>
    <rect class="st2" x="667.02" y="550.87" width="4.97" height="5.16" transform="translate(-8.63 10.61) rotate(-.9)"/>
    <path class="st1" d="M467.54,542.98c-1.28,5.96-6.04,9.72-11.03,9.68-6-.04-9.92-4.47-10.93-10.46-1.25-7.37,3.25-15.24,11.4-14.96,7.71.27,12.2,8.17,10.57,15.73Z"/>
    <path class="st1" d="M704.76,551.69l-9.08.69v-11.54s8.88.75,8.88.75c1.61.14,3.7,3.35,3.8,4.92s-1.88,5.05-3.6,5.18Z"/>
    <path class="st1" d="M703.95,536.99l-8.19.58-.3-10.26,7.93.32c1.43.06,3.59,2.58,3.81,3.95.25,1.56-1.48,5.29-3.26,5.41Z"/>
    <circle class="st1" cx="502.41" cy="545.69" r="6.9"/>
    <path class="st1" d="M764.52,547.09c.27,4.91-3.45,5.83-6.35,5.76-1.1-.03-4.11-1.41-3.62-2.33l2-3.77,7.97.33Z"/>
    <path class="st1" d="M730.65,547.59c.97,1.59-1.37,4.53-3.4,5.22s-6-.38-5.95-2.59c.09-3.94,5.98-4.5,9.35-2.63Z"/>
    <path class="st1" d="M956.79,547.53c1.18,1.51-1.38,4.75-3.47,5.35s-6.04-.35-5.92-2.79c.17-3.52,5.82-4.27,9.39-2.56Z"/>
    <path class="st1" d="M833.91,543.97l-11.03-.27c.33-2.74,2.36-4.93,4.8-5.31,2.97-.45,5.85.88,6.23,5.57Z"/>
    <path class="st1" d="M533.68,543.64l-11.43.06c1.04-3.57,2.83-5.15,5.33-5.27,2.2-.1,4.05.48,6.1,5.21Z"/>
    <circle class="st1" cx="1003.04" cy="545.68" r="6.82"/>
    <path class="st1" d="M915.28,543.93l-11.16-.13c.42-2.92,2.36-5.13,4.61-5.43,3.07-.41,5.87.94,6.56,5.56Z"/>
    <path class="st1" d="M622.35,552.66c-4.57.74-6.93-3.12-7.36-6.27-.5-3.7,1.71-7.73,6.1-8.01,3.79-.24,6.22,3.07,6.64,6.39.4,3.08-1.44,7.25-5.38,7.88Z"/>
  </g>
  <g>
    <polygon class="st3" points="544.57 408.43 510.19 466.62 497.94 466.95 482.22 439.78 463.7 409.86 463.34 479.76 439.2 479.7 439.06 362.55 461.49 362.5 504.64 435.44 547.33 362.51 568.96 362.48 568.98 479.65 544.71 479.72 544.57 408.43"/>
    <path class="st4" d="M934.48,452.96c-11.92,19.53-32.29,29.14-54.48,29.76-21.2.59-41.57-7.1-55.12-23.66-18.1-22.13-17.84-54.75.46-76.58,12.81-15.28,31-22.04,50.64-22.29,20.78-.27,40.53,6.68,53.85,23.04,15.99,19.63,18.12,47.66,4.64,69.74ZM914.96,421.35c0-20.79-16.85-37.64-37.64-37.64s-37.64,16.85-37.64,37.64,16.85,37.64,37.64,37.64,37.64-16.85,37.64-37.64Z"/>
    <path class="st4" d="M1041.94,467.32c-19.92,22.45-66.6,18.16-92.36,1.74l9.36-21.2c18.14,13.95,59.71,18.2,62.07,2.44.64-4.26-1.33-9.25-5.73-10.67l-15.21-4.91-29.29-8.53c-6.88-2-12.94-7.24-16.3-13.67-5.48-10.52-4.87-24.23,2.11-33.88,17.56-24.29,62.29-22.03,87.52-6.79l-8.96,21.24c-15.25-9.53-41.68-15.34-53.46-4.26-1.86,1.75-3.07,5.97-2.68,8.37,1.21,7.34,11.12,9.79,19.89,12.07l20.68,5.39c8.17,2.13,16.62,5.91,22.49,12.3,10.19,11.08,9.99,28.94-.15,40.37Z"/>
    <path class="st3" d="M776.11,452.46l13.5,14.77c-13.31,15.41-41.04,16.85-58.09,9.37-17.04-7.47-26.83-23.22-26.64-41.58.26-25.14,20.21-43.75,45.13-43.53,15.85.13,30.11,6.23,38.45,20.11,5.76,9.59,7.63,20.7,5.99,31.76h-64.45c1.82,10.5,11.17,16.1,20.66,17.27,9.26.99,17.67-.66,25.44-8.18ZM772.13,428.49c-2.39-13.4-13.3-19.06-24.55-17.79-9.78,1.23-17.41,8.1-18.2,17.91l42.75-.12Z"/>
    <path class="st3" d="M698.5,460.89c-7.77,25-52.46,24.27-75.9,10.3l8.23-17.35c14.23,9.66,44.33,12.17,45.46,1.6.23-2.16-1.99-6.02-4.32-6.5l-15.09-3.08c-15.9-3.24-32.24-6.34-32.82-24.83-.27-8.62,3.3-15.73,9.99-21.14,15.15-12.23,44.64-10.33,62.35-.17l-7.79,17.12c-14.58-7.44-40.59-9.94-40.8,1.66-.03,1.73,2.21,5.24,4.01,5.63l16.76,3.64c7.85,1.7,16.07,3.34,22.77,7.94,8,5.49,10.04,15.84,7.15,25.16Z"/>
    <rect class="st0" x="587.5" y="393.03" width="25" height="86.88"/>
    <path class="st3" d="M610.17,357.34c5.27,3.97,5.76,10.73,3.55,15.83-2.5,5.77-8.24,8.27-14.73,7.88-8.1-.49-13.87-5.54-13.72-13.53.13-7.06,5.86-12.99,13.84-13.11,3.61-.06,7.92.57,11.06,2.93Z"/>
    <circle class="st1" cx="877.32" cy="421.35" r="37.64"/>
    <path class="st1" d="M772.13,428.49l-42.75.12c.8-9.81,8.43-16.68,18.2-17.91,11.24-1.27,22.16,4.39,24.55,17.79Z"/>
  </g>
</svg>